<svg width="95" height="95" viewBox="0 0 95 95" fill="none" xmlns="http://www.w3.org/2000/svg">
<path d="M28.5097 6.63079C22.438 8.69776 17.9165 13.0901 15.2036 19.5493C13.395 23.6833 11.974 24.9751 8.8735 25.6211C6.67734 26.1378 4.86874 27.0421 4.86874 27.9464C4.86874 29.2383 15.3328 75.2283 17.9165 84.9173L19.2083 89.8263H54.6052H90.1312V53.6543V17.4824H83.2844C77.0835 17.4824 76.05 17.0948 73.5955 13.6068C68.4281 6.63079 62.7439 4.82219 46.9832 4.95138C39.3613 5.08056 31.0934 5.72649 28.5097 6.63079ZM40.2656 8.18102C40.524 8.69776 39.1029 11.0231 37.036 13.3484C33.6771 17.0948 32.6436 17.4824 25.926 17.4824H18.5624L22.3088 13.6068C27.0887 8.56857 38.3278 5.20975 40.2656 8.18102ZM62.6147 8.56857C66.6195 9.98962 72.0453 14.6403 72.0453 16.4489C72.0453 17.0948 70.7534 17.4824 69.2032 17.224C67.2654 16.9656 66.1027 15.803 65.8443 13.8652C65.3276 10.7647 64.2941 10.5064 58.2224 12.1858C54.7344 13.2193 53.7009 12.9609 51.2464 10.248L48.4043 7.14753H53.7009C56.543 7.14753 60.5477 7.79346 62.6147 8.56857ZM49.3086 11.669C50.7296 12.7025 51.6339 13.736 51.2464 13.9944C49.9545 15.157 38.3278 17.7408 37.6819 17.0948C36.6484 16.1905 43.4952 9.73125 45.433 9.73125C46.2081 9.73125 48.0167 10.6355 49.3086 11.669ZM63.0023 15.5446C63.0023 16.7073 61.8396 17.4824 59.7726 17.4824C55.7679 17.4824 55.5095 15.2862 59.5143 14.5111C61.0645 14.2527 62.4855 13.8652 62.7439 13.736C62.8731 13.736 63.0023 14.5111 63.0023 15.5446ZM18.0457 22.9082C17.1414 23.8125 16.4954 23.9417 16.4954 23.1665C16.4954 21.3579 18.0457 19.8077 18.95 20.712C19.2083 21.0996 18.8208 22.1331 18.0457 22.9082ZM31.9977 21.2288C31.9977 21.8747 31.0934 23.0374 30.0599 23.9417C25.926 27.3005 30.0599 34.1473 34.7106 31.6928C37.4235 30.1426 37.9403 26.5254 35.7441 24.3292C32.3853 20.9704 36.2608 20.0661 55.3803 20.0661C75.1457 20.0661 75.9208 20.3245 73.3371 25.2335C71.3993 28.9799 73.0787 31.9512 77.0835 31.4344C81.0882 30.9177 82.3801 26.5254 79.1505 23.9417C75.9208 21.2288 76.9543 20.0661 82.3801 20.0661H87.5475V53.6543V87.2426H54.6052H21.6629V53.6543V20.0661H26.8303C29.6724 20.0661 31.9977 20.5828 31.9977 21.2288ZM19.0792 28.4632C19.0792 29.4966 18.5624 30.4009 17.7873 30.4009C17.1414 30.4009 16.4954 29.4966 16.4954 28.4632C16.4954 27.4297 17.1414 26.5254 17.7873 26.5254C18.5624 26.5254 19.0792 27.4297 19.0792 28.4632ZM34.5814 28.5923C34.5814 28.8507 33.6771 29.1091 32.6436 29.1091C31.6102 29.1091 30.7059 28.5923 30.7059 27.8172C30.7059 27.1713 31.6102 26.9129 32.6436 27.3005C33.6771 27.8172 34.5814 28.334 34.5814 28.5923ZM13.2658 30.0134C12.6199 31.3052 12.2323 33.7598 12.1031 35.5684C11.974 38.1521 12.6199 38.9272 15.5911 39.1856L19.0792 39.5731L18.95 57.2715C18.95 66.9605 18.5624 74.1949 18.1749 73.4197C16.6246 69.2858 7.71083 29.6258 8.22757 28.8507C8.61513 28.2048 10.0362 27.8172 11.5864 27.8172C13.5242 27.8172 13.9117 28.334 13.2658 30.0134ZM78.117 28.5923C77.7294 28.9799 76.5667 29.1091 75.6625 28.7215C74.629 28.334 75.0165 27.9464 76.4376 27.9464C77.8586 27.8172 78.6337 28.2048 78.117 28.5923ZM17.7873 35.5684C17.7873 36.2143 16.883 36.8602 15.8495 36.8602C14.816 36.8602 13.9117 36.2143 13.9117 35.5684C13.9117 34.7933 14.816 34.2765 15.8495 34.2765C16.883 34.2765 17.7873 34.7933 17.7873 35.5684Z" fill="#1160BD"/>
<path d="M31.9977 51.0706V62.6973H55.2512H78.5046V51.0706V39.4439H55.2512H31.9977V51.0706ZM75.9208 51.0706V60.1136H55.2512H34.5815V51.0706V42.0276H55.2512H75.9208V51.0706Z" fill="#1160BD"/>
<path d="M28.1222 80.7833C28.1222 81.5584 36.1317 82.0752 49.567 82.0752C63.3898 82.0752 70.6242 81.6876 70.1075 80.7833C69.5907 80.0082 61.0645 79.4915 48.6627 79.4915C35.8733 79.4915 28.1222 80.0082 28.1222 80.7833Z" fill="#1160BD"/>
<path d="M74.629 80.7833C74.629 81.4293 76.6959 82.0752 79.2796 82.0752C81.9925 82.0752 83.5428 81.5584 83.026 80.7833C82.6385 80.0082 80.5715 79.4915 78.3753 79.4915C76.3084 79.4915 74.629 80.0082 74.629 80.7833Z" fill="#1160BD"/>
</svg>
